<svg width="608" height="592" viewBox="0 0 608 592" fill="none" xmlns="http://www.w3.org/2000/svg">
<path fill-rule="evenodd" clip-rule="evenodd" d="M250.43 3.96539C21.1439 48.222 -77.8219 318.548 69.7535 497.466C107.505 543.228 178.309 589.388 212.153 590.296L226.336 590.677L227.497 560.13L228.661 529.583L208.892 531.482C170.153 535.205 140.397 518.403 122.266 482.568C115.873 469.934 102.726 452.96 92.6869 444.379C75.4597 429.653 75.006 428.726 82.9289 424.481C97.317 416.783 119.295 427.244 137.787 450.591C158.399 476.612 170.944 484.274 192.821 484.206C219.823 484.122 227.593 480.769 230.4 467.979C231.781 461.682 236.536 451.928 240.961 446.302L249.004 436.074H239.034C221.698 436.074 182.071 421.714 162.784 408.447C130.358 386.136 111.717 344.533 111.312 293.563C111.047 259.976 117.347 235.745 131.53 215.827C138.072 206.644 138.734 201.941 135.743 185.931C132.089 166.363 136.835 128.427 143.814 121.447C149.272 115.99 182.63 125.383 207.643 139.422C227.737 150.694 230.38 151.191 249.004 147.196C274.223 141.791 333.165 141.694 361.23 147.015C381.336 150.83 384.256 150.316 404.948 139.353C417.14 132.892 435.05 125.495 444.74 122.917C471.259 115.862 475.263 121.781 475.479 168.362C475.62 199.106 477.134 207.953 484.21 219.417C497.618 241.134 502.734 268.308 500.417 305.469C497.987 344.417 486.233 374.338 465.027 395.54C448.109 412.458 409.185 431.227 384.123 434.556L365.218 437.062L373.759 453.635C380.935 467.553 382.674 479.841 384.633 530.398C386.665 582.911 387.838 590.757 393.837 591.902C404.467 593.934 464.372 563.977 492.879 542.377C526.559 516.857 558.423 477.785 577.939 438.082C602.422 388.268 607.799 362.74 607.55 297.534C607.362 248.294 606.061 237.492 597.07 210.527C564.214 112.003 487.482 38.2912 388.862 10.5189C350.384 -0.315303 287.924 -3.27484 250.43 3.96539Z" fill="white"/>
<mask id="path-2-inside-1_38_109" fill="white">
<path fill-rule="evenodd" clip-rule="evenodd" d="M301.048 252.572C301.207 266.48 300.93 276.328 300.362 276.895C299.183 278.075 258.38 254.981 258.38 253.134C258.38 252.437 264.554 248.279 272.098 243.892C279.643 239.505 288.509 234.316 291.801 232.362C295.093 230.409 298.46 228.898 299.283 229.005C300.556 229.173 300.819 232.688 301.048 252.572ZM254.506 258.908C262.398 263.487 268.855 267.803 268.855 268.498C268.855 269.193 259.652 275.068 248.404 281.554C233.543 290.123 227.611 293.067 226.706 292.325C224.973 290.905 224.911 246.589 226.639 244.861C227.937 243.562 228.897 244.046 254.506 258.908ZM251.397 311.447C251.397 324.588 251.002 335.583 250.518 335.882C249.282 336.646 208.998 313.183 208.998 311.699C208.998 310.262 247.104 287.676 249.651 287.604C251.266 287.559 251.397 289.34 251.397 311.447ZM280.328 306.516C280.328 320.155 280.506 321.663 282.323 323.481C285.08 326.239 291.351 326.183 293.891 323.379C295.546 321.553 295.833 319.359 296.113 306.414L296.434 291.547H302.436H308.437L308.1 307.265C307.791 321.7 307.572 323.29 305.421 326.748C301.829 332.53 298.32 333.96 287.733 333.96C279.29 333.96 278.421 333.765 274.907 331.084C269.148 326.69 268.357 323.727 268.357 306.548V291.547H274.342H280.328V306.516ZM349.165 295.539V299.531H339.687H330.21V304.021V308.512H338.689H347.169V312.504V316.496H338.689H330.21V324.978V333.461H324.224H318.238V312.504V291.547H333.701H349.165V295.539ZM390.813 294.185C392.323 295.303 394.192 298.012 394.968 300.203C396.246 303.821 396.2 304.543 394.469 308.039C393.343 310.313 391.244 312.526 389.342 313.444C386.231 314.946 385.06 316.496 387.036 316.496C388.64 316.496 391.718 320.363 394.965 326.456C396.661 329.639 398.048 332.517 398.048 332.852C398.048 333.186 395.13 333.461 391.564 333.461H385.078L382.336 328.377C377.268 318.987 375.661 317.009 372.826 316.679L370.115 316.363V324.912V333.461H364.129H358.143V312.38V291.3L373.105 291.726C386.194 292.097 388.409 292.405 390.813 294.185ZM370.115 304.52V309.51H374.04C380.283 309.51 383.084 308.034 383.084 304.745C383.084 300.685 381.383 299.531 375.402 299.531H370.115V304.52Z"/>
</mask>
<path fill-rule="evenodd" clip-rule="evenodd" d="M301.048 252.572C301.207 266.48 300.93 276.328 300.362 276.895C299.183 278.075 258.38 254.981 258.38 253.134C258.38 252.437 264.554 248.279 272.098 243.892C279.643 239.505 288.509 234.316 291.801 232.362C295.093 230.409 298.46 228.898 299.283 229.005C300.556 229.173 300.819 232.688 301.048 252.572ZM254.506 258.908C262.398 263.487 268.855 267.803 268.855 268.498C268.855 269.193 259.652 275.068 248.404 281.554C233.543 290.123 227.611 293.067 226.706 292.325C224.973 290.905 224.911 246.589 226.639 244.861C227.937 243.562 228.897 244.046 254.506 258.908ZM251.397 311.447C251.397 324.588 251.002 335.583 250.518 335.882C249.282 336.646 208.998 313.183 208.998 311.699C208.998 310.262 247.104 287.676 249.651 287.604C251.266 287.559 251.397 289.34 251.397 311.447ZM280.328 306.516C280.328 320.155 280.506 321.663 282.323 323.481C285.08 326.239 291.351 326.183 293.891 323.379C295.546 321.553 295.833 319.359 296.113 306.414L296.434 291.547H302.436H308.437L308.1 307.265C307.791 321.7 307.572 323.29 305.421 326.748C301.829 332.53 298.32 333.96 287.733 333.96C279.29 333.96 278.421 333.765 274.907 331.084C269.148 326.69 268.357 323.727 268.357 306.548V291.547H274.342H280.328V306.516ZM349.165 295.539V299.531H339.687H330.21V304.021V308.512H338.689H347.169V312.504V316.496H338.689H330.21V324.978V333.461H324.224H318.238V312.504V291.547H333.701H349.165V295.539ZM390.813 294.185C392.323 295.303 394.192 298.012 394.968 300.203C396.246 303.821 396.2 304.543 394.469 308.039C393.343 310.313 391.244 312.526 389.342 313.444C386.231 314.946 385.06 316.496 387.036 316.496C388.64 316.496 391.718 320.363 394.965 326.456C396.661 329.639 398.048 332.517 398.048 332.852C398.048 333.186 395.13 333.461 391.564 333.461H385.078L382.336 328.377C377.268 318.987 375.661 317.009 372.826 316.679L370.115 316.363V324.912V333.461H364.129H358.143V312.38V291.3L373.105 291.726C386.194 292.097 388.409 292.405 390.813 294.185ZM370.115 304.52V309.51H374.04C380.283 309.51 383.084 308.034 383.084 304.745C383.084 300.685 381.383 299.531 375.402 299.531H370.115V304.52Z" fill="white"/>
<path d="M257.582 252.812L258.575 252.932L258.575 252.932L257.582 252.812ZM277.717 267.018L278.215 266.151L278.215 266.151L277.717 267.018ZM299.964 278.397L300.153 279.379L300.154 279.379L299.964 278.397ZM226.287 293.452L226.759 292.571L226.758 292.571L226.287 293.452ZM249.402 282.472L249.897 283.34L249.897 283.34L249.402 282.472ZM270.192 268.003L269.21 268.192L269.21 268.192L270.192 268.003ZM264.365 263.08L264.863 262.213L264.863 262.213L264.365 263.08ZM227.454 325.221L227.96 324.358L227.959 324.358L227.454 325.221ZM249.402 336.79L249.467 335.792L249.467 335.792L249.402 336.79ZM251.896 336.953L251.83 337.951L252.896 338.021V336.953H251.896ZM273.945 332.108L274.552 331.313L274.552 331.313L273.945 332.108ZM286.354 335.273L286.402 334.274L286.402 334.274L286.354 335.273ZM299.682 333.509L299.247 332.608L299.246 332.609L299.682 333.509ZM306.478 327.652L305.629 327.124L305.629 327.124L306.478 327.652ZM309.094 307.265L308.094 307.245L308.094 307.245L309.094 307.265ZM309.428 290.549L310.428 290.569L310.448 289.549H309.428V290.549ZM295.436 290.549V289.549H294.457L294.436 290.528L295.436 290.549ZM295.115 305.609L296.115 305.631L296.115 305.63L295.115 305.609ZM292.438 322.574L293.067 323.352L293.067 323.351L292.438 322.574ZM283.321 322.483L282.614 323.19L282.614 323.19L283.321 322.483ZM281.326 290.549H282.326V289.549H281.326V290.549ZM331.207 334.459V335.459H332.207V334.459H331.207ZM331.207 317.494V316.494H330.207V317.494H331.207ZM348.167 317.494V318.494H349.167V317.494H348.167ZM348.167 307.514H349.167V306.514H348.167V307.514ZM331.207 307.514H330.207V308.514H331.207V307.514ZM331.207 301.598L331.178 300.599L330.207 300.627V301.598H331.207ZM340.934 301.313L340.963 302.313L340.963 302.313L340.934 301.313ZM350.661 301.028L350.69 302.027L351.607 302L351.659 301.085L350.661 301.028ZM350.962 295.788L349.964 295.731L349.964 295.731L350.962 295.788ZM351.265 290.549L352.263 290.607L352.324 289.549H351.265V290.549ZM357.146 334.459H356.146V335.459H357.146V334.459ZM371.112 334.459V335.459H372.112V334.459H371.112ZM380.537 327.722L381.413 327.239L381.413 327.239L380.537 327.722ZM384.253 334.459L383.378 334.942L383.663 335.459H384.253V334.459ZM390.82 317.747L390.088 318.429L390.088 318.429L390.82 317.747ZM391.898 313.557L392.36 314.444L392.36 314.444L391.898 313.557ZM389.035 291.853L389.361 290.907L389.36 290.907L389.035 291.853ZM381.171 306.964L381.697 307.815L381.698 307.815L381.171 306.964ZM375.684 308.157L375.82 309.148L375.82 309.148L375.684 308.157ZM371.112 308.784H370.112V309.93L371.248 309.774L371.112 308.784ZM277.834 238.999L277.34 238.129C268.958 242.891 263.919 245.845 260.945 247.873C259.461 248.886 258.436 249.704 257.758 250.436C257.064 251.187 256.685 251.902 256.589 252.693L257.582 252.812L258.575 252.932C258.605 252.68 258.723 252.339 259.226 251.794C259.747 251.231 260.622 250.514 262.072 249.526C264.965 247.553 269.926 244.642 278.328 239.868L277.834 238.999ZM257.582 252.812L256.589 252.692C256.497 253.456 256.589 254.215 257.173 255.053C257.699 255.808 258.601 256.594 259.986 257.571C262.773 259.538 267.926 262.552 277.22 267.885L277.717 267.018L278.215 266.151C268.881 260.794 263.83 257.836 261.139 255.937C259.783 254.981 259.128 254.361 258.814 253.91C258.559 253.543 258.531 253.298 258.575 252.932L257.582 252.812ZM277.717 267.018L277.22 267.885C282.849 271.116 288.176 274.017 292.226 276.089C294.249 277.124 295.965 277.957 297.244 278.522C297.882 278.804 298.428 279.026 298.859 279.174C299.072 279.247 299.277 279.309 299.461 279.349C299.605 279.381 299.876 279.433 300.153 279.379L299.964 278.397L299.776 277.415C299.928 277.386 300.004 277.421 299.887 277.395C299.809 277.378 299.685 277.343 299.508 277.282C299.156 277.161 298.669 276.965 298.052 276.692C296.823 276.15 295.146 275.336 293.137 274.308C289.122 272.255 283.824 269.37 278.215 266.151L277.717 267.018ZM299.964 278.397L300.154 279.379C300.439 279.324 300.789 279.224 301.122 278.977C301.461 278.728 301.701 278.389 301.877 277.989C302.205 277.247 302.383 276.121 302.503 274.443C302.748 271.031 302.777 264.744 302.777 253.113H301.777H300.777C300.777 264.786 300.747 270.978 300.509 274.3C300.387 275.989 300.219 276.794 300.047 277.182C300.01 277.267 299.979 277.315 299.961 277.339C299.952 277.352 299.945 277.359 299.941 277.362C299.938 277.366 299.936 277.368 299.935 277.368C299.935 277.368 299.929 277.373 299.908 277.381C299.885 277.39 299.844 277.402 299.775 277.416L299.964 278.397ZM225.066 244.227L224.133 243.869C224.07 244.034 224.037 244.224 224.016 244.358C223.992 244.517 223.97 244.709 223.949 244.926C223.908 245.361 223.869 245.936 223.833 246.629C223.76 248.016 223.694 249.91 223.639 252.172C223.529 256.698 223.461 262.717 223.461 269.14H224.461H225.461C225.461 262.729 225.529 256.726 225.638 252.221C225.693 249.967 225.758 248.094 225.83 246.734C225.866 246.053 225.903 245.509 225.94 245.115C225.959 244.917 225.977 244.766 225.993 244.66C226.013 244.528 226.022 244.529 226 244.585L225.066 244.227ZM224.461 269.14H223.461C223.461 279.916 223.494 285.816 223.743 289.129C223.867 290.773 224.049 291.89 224.358 292.675C224.52 293.086 224.725 293.428 224.99 293.714C225.254 293.999 225.542 294.188 225.815 294.334L226.287 293.452L226.758 292.571C226.609 292.49 226.523 292.425 226.456 292.354C226.391 292.283 226.307 292.166 226.219 291.942C226.028 291.458 225.859 290.602 225.738 288.979C225.496 285.76 225.461 279.956 225.461 269.14H224.461ZM226.287 293.452L225.815 294.334C226.168 294.523 226.79 294.977 227.612 295.009C228.406 295.04 229.338 294.717 230.691 294.075C233.456 292.761 238.757 289.701 249.897 283.34L249.402 282.472L248.906 281.604C237.705 287.999 232.509 290.997 229.833 292.268C228.465 292.918 227.939 293.02 227.69 293.01C227.471 293.002 227.465 292.949 226.759 292.571L226.287 293.452ZM249.402 282.472L249.897 283.34C259.97 277.589 265.327 274.5 268.101 272.569C269.47 271.616 270.342 270.86 270.811 270.113C271.062 269.713 271.201 269.312 271.245 268.894C271.286 268.494 271.234 268.126 271.174 267.814L270.192 268.003L269.21 268.192C269.257 268.436 269.267 268.577 269.255 268.687C269.246 268.779 269.217 268.89 269.117 269.05C268.883 269.423 268.316 269.983 266.958 270.928C264.278 272.793 259.026 275.825 248.906 281.604L249.402 282.472ZM270.192 268.003L271.174 267.814C271.074 267.293 270.717 266.8 270.386 266.414C270.02 265.988 269.537 265.527 268.985 265.061C267.878 264.125 266.417 263.105 264.863 262.213L264.365 263.08L263.867 263.947C265.33 264.787 266.689 265.74 267.694 266.589C268.198 267.014 268.595 267.399 268.868 267.717C269.176 268.075 269.217 268.225 269.21 268.192L270.192 268.003ZM264.365 263.08L264.863 262.213C261.847 260.482 252.672 255.178 244.471 250.425L243.97 251.29L243.468 252.156C251.668 256.908 260.847 262.215 263.867 263.947L264.365 263.08ZM228.451 297.484L227.95 296.619C219.459 301.541 214.31 304.621 211.283 306.706C209.775 307.746 208.737 308.576 208.07 309.3C207.396 310.03 207 310.76 207 311.579H208H209C209 311.468 209.035 311.203 209.54 310.656C210.051 310.102 210.938 309.373 212.418 308.353C215.368 306.32 220.444 303.282 228.953 298.349L228.451 297.484ZM208 311.579H207C207 312.386 207.381 313.11 208.032 313.834C208.676 314.549 209.674 315.363 211.115 316.374C214.006 318.401 218.907 321.369 226.948 326.083L227.454 325.221L227.959 324.358C219.9 319.633 215.074 316.707 212.263 314.736C210.853 313.747 210.006 313.037 209.519 312.495C209.039 311.962 209 311.697 209 311.579H208ZM227.454 325.221L226.948 326.083C232.308 329.226 237.465 332.103 241.459 334.209C243.455 335.261 245.169 336.124 246.476 336.733C247.129 337.037 247.691 337.282 248.143 337.457C248.549 337.614 248.99 337.765 249.336 337.788L249.402 336.79L249.467 335.792C249.47 335.792 249.302 335.761 248.864 335.591C248.471 335.44 247.954 335.215 247.32 334.92C246.055 334.331 244.374 333.484 242.392 332.439C238.43 330.351 233.299 327.489 227.96 324.358L227.454 325.221ZM249.402 336.79L249.336 337.788L251.83 337.951L251.896 336.953L251.961 335.956L249.467 335.792L249.402 336.79ZM251.896 336.953H252.896V311.52H251.896H250.896V336.953H251.896ZM267.359 307.065H266.359C266.359 316.258 266.477 321.511 267.404 325.035C267.879 326.841 268.571 328.224 269.571 329.465C270.554 330.685 271.808 331.736 273.339 332.903L273.945 332.108L274.552 331.313C273.041 330.161 271.951 329.231 271.128 328.21C270.323 327.21 269.749 326.088 269.338 324.526C268.492 321.311 268.359 316.363 268.359 307.065H267.359ZM273.945 332.108L273.339 332.903C274.969 334.148 276.264 334.932 278.187 335.422C280.045 335.896 282.462 336.088 286.306 336.272L286.354 335.273L286.402 334.274C282.523 334.089 280.31 333.9 278.682 333.484C277.119 333.086 276.071 332.472 274.552 331.313L273.945 332.108ZM286.354 335.273L286.306 336.272C290.085 336.453 292.533 336.487 294.534 336.222C296.58 335.951 298.126 335.373 300.118 334.409L299.682 333.509L299.246 332.609C297.36 333.522 296.028 334.007 294.272 334.239C292.472 334.478 290.194 334.455 286.402 334.274L286.354 335.273ZM299.682 333.509L300.118 334.409C302.999 333.014 305.828 330.592 307.327 328.18L306.478 327.652L305.629 327.124C304.359 329.166 301.842 331.352 299.247 332.608L299.682 333.509ZM306.478 327.652L307.327 328.18C308.444 326.383 309.076 324.991 309.45 322.081C309.812 319.26 309.941 314.943 310.094 307.285L309.094 307.265L308.094 307.245C307.94 314.948 307.811 319.137 307.466 321.826C307.132 324.425 306.61 325.546 305.629 327.124L306.478 327.652ZM309.094 307.265L310.094 307.285L310.428 290.569L309.428 290.549L308.428 290.529L308.094 307.245L309.094 307.265ZM309.428 290.549V289.549H302.432V290.549V291.549H309.428V290.549ZM302.432 290.549V289.549H295.436V290.549V291.549H302.432V290.549ZM295.436 290.549L294.436 290.528L294.115 305.588L295.115 305.609L296.115 305.63L296.436 290.571L295.436 290.549ZM295.115 305.609L294.115 305.588C293.96 312.845 293.855 316.54 293.52 318.664C293.356 319.704 293.149 320.271 292.911 320.664C292.673 321.055 292.36 321.351 291.809 321.797L292.438 322.574L293.067 323.351C293.645 322.884 294.192 322.407 294.621 321.701C295.048 320.997 295.311 320.144 295.495 318.975C295.857 316.682 295.961 312.808 296.115 305.631L295.115 305.609ZM292.438 322.574L291.809 321.797C290.439 322.905 289.008 323.407 287.692 323.394C286.385 323.381 285.112 322.86 284.028 321.776L283.321 322.483L282.614 323.19C284.044 324.621 285.809 325.376 287.672 325.394C289.526 325.413 291.397 324.703 293.067 323.352L292.438 322.574ZM283.321 322.483L284.028 321.776C283.624 321.372 283.361 321.036 283.156 320.576C282.942 320.096 282.765 319.423 282.635 318.317C282.372 316.08 282.326 312.364 282.326 305.518H281.326H280.326C280.326 312.312 280.368 316.169 280.649 318.55C280.79 319.753 280.999 320.65 281.329 321.391C281.668 322.151 282.109 322.685 282.614 323.19L283.321 322.483ZM281.326 305.518H282.326V290.549H281.326H280.326V305.518H281.326ZM281.326 290.549V289.549H274.342V290.549V291.549H281.326V290.549ZM317.24 334.459V335.459H324.224V334.459V333.459H317.24V334.459ZM324.224 334.459V335.459H331.207V334.459V333.459H324.224V334.459ZM331.207 334.459H332.207V325.976H331.207H330.207V334.459H331.207ZM331.207 325.976H332.207V317.494H331.207H330.207V325.976H331.207ZM331.207 317.494V318.494H339.687V317.494V316.494H331.207V317.494ZM339.687 317.494V318.494H348.167V317.494V316.494H339.687V317.494ZM348.167 317.494H349.167V312.504H348.167H347.167V317.494H348.167ZM348.167 312.504H349.167V307.514H348.167H347.167V312.504H348.167ZM348.167 307.514V306.514H339.687V307.514V308.514H348.167V307.514ZM339.687 307.514V306.514H331.207V307.514V308.514H339.687V307.514ZM331.207 307.514H332.207V304.556H331.207H330.207V307.514H331.207ZM331.207 304.556H332.207V301.598H331.207H330.207V304.556H331.207ZM331.207 301.598L331.237 302.598L340.963 302.313L340.934 301.313L340.905 300.313L331.178 300.599L331.207 301.598ZM340.934 301.313L340.963 302.313L350.69 302.027L350.661 301.028L350.632 300.028L340.905 300.313L340.934 301.313ZM350.661 301.028L351.659 301.085L351.961 295.846L350.962 295.788L349.964 295.731L349.663 300.97L350.661 301.028ZM350.962 295.788L351.961 295.846L352.263 290.607L351.265 290.549L350.266 290.492L349.964 295.731L350.962 295.788ZM351.265 290.549V289.549H334.252V290.549V291.549H351.265V290.549ZM357.146 312.504H356.146V334.459H357.146H358.146V312.504H357.146ZM357.146 334.459V335.459H364.129V334.459V333.459H357.146V334.459ZM364.129 334.459V335.459H371.112V334.459V333.459H364.129V334.459ZM371.112 334.459H372.112V325.976H371.112H370.112V334.459H371.112ZM371.112 325.976H372.112C372.112 322.978 372.242 320.843 372.525 319.511C372.67 318.832 372.831 318.481 372.945 318.331C372.993 318.268 373.003 318.28 372.961 318.298C372.911 318.32 372.871 318.314 372.875 318.315C372.936 318.327 373.175 318.419 373.617 318.846C374.034 319.25 374.538 319.858 375.136 320.699C376.331 322.379 377.82 324.869 379.661 328.206L380.537 327.722L381.413 327.239C379.564 323.89 378.03 321.317 376.766 319.54C376.135 318.653 375.55 317.933 375.007 317.408C374.488 316.907 373.895 316.47 373.24 316.349C372.885 316.283 372.516 316.31 372.163 316.464C371.819 316.614 371.554 316.856 371.352 317.122C370.967 317.629 370.732 318.33 370.569 319.095C370.238 320.651 370.112 322.971 370.112 325.976H371.112ZM380.537 327.722L379.661 328.206L383.378 334.942L384.253 334.459L385.129 333.976L381.413 327.239L380.537 327.722ZM384.253 334.459V335.459H392.148V334.459V333.459H384.253V334.459ZM392.148 334.459V335.459C394.337 335.459 396.338 335.39 397.802 335.276C398.529 335.22 399.148 335.151 399.6 335.069C399.818 335.029 400.044 334.978 400.234 334.907C400.324 334.873 400.467 334.813 400.606 334.708C400.721 334.621 401.044 334.341 401.044 333.848H400.044H399.044C399.044 333.397 399.339 333.158 399.399 333.113C399.484 333.048 399.547 333.028 399.531 333.035C399.51 333.042 399.424 333.068 399.241 333.101C398.891 333.165 398.351 333.228 397.647 333.282C396.249 333.39 394.302 333.459 392.148 333.459V334.459ZM400.044 333.848H401.044C401.044 333.595 400.969 333.339 400.913 333.165C400.847 332.959 400.756 332.725 400.649 332.472C400.434 331.965 400.131 331.331 399.771 330.619C399.05 329.191 398.072 327.402 397.037 325.595C396.001 323.787 394.902 321.95 393.935 320.43C392.986 318.938 392.116 317.671 391.551 317.065L390.82 317.747L390.088 318.429C390.506 318.877 391.281 319.984 392.247 321.503C393.194 322.992 394.277 324.801 395.302 326.589C396.326 328.378 397.286 330.135 397.987 331.521C398.338 332.216 398.618 332.805 398.807 333.252C398.902 333.477 398.969 333.652 399.01 333.779C399.061 333.937 399.044 333.935 399.044 333.848H400.044ZM390.82 317.747L391.551 317.065C390.959 316.431 390.583 316.026 390.359 315.717C390.115 315.381 390.26 315.433 390.207 315.64C390.169 315.786 390.096 315.728 390.531 315.446C390.919 315.195 391.498 314.893 392.36 314.444L391.898 313.557L391.436 312.67C390.614 313.098 389.931 313.452 389.443 313.768C389.003 314.053 388.442 314.473 388.27 315.141C388.083 315.871 388.447 316.488 388.741 316.893C389.055 317.325 389.537 317.838 390.088 318.429L390.82 317.747ZM391.898 313.557L392.36 314.444C393.98 313.599 395.388 311.706 396.377 309.623C397.383 307.506 398.051 304.993 398.051 302.704H397.051H396.051C396.051 304.64 395.475 306.86 394.571 308.765C393.65 310.705 392.481 312.125 391.436 312.67L391.898 313.557ZM397.051 302.704H398.051C398.051 300.36 396.946 297.793 395.376 295.668C393.803 293.538 391.647 291.695 389.361 290.907L389.035 291.853L388.709 292.798C390.5 293.415 392.352 294.94 393.767 296.856C395.186 298.776 396.051 300.933 396.051 302.704H397.051ZM389.035 291.853L389.36 290.907C388.756 290.699 387.831 290.527 386.72 290.379C385.587 290.229 384.194 290.096 382.614 289.984C379.454 289.761 375.516 289.622 371.366 289.605L371.362 290.605L371.358 291.605C375.472 291.622 379.365 291.76 382.473 291.979C384.028 292.089 385.378 292.219 386.456 292.362C387.556 292.508 388.309 292.66 388.709 292.798L389.035 291.853ZM380.157 301.562L379.685 302.443C380.352 302.8 380.868 303.601 381.033 304.475C381.205 305.394 380.933 305.936 380.645 306.114L381.171 306.964L381.698 307.815C383.018 306.998 383.236 305.373 382.998 304.106C382.752 302.795 381.957 301.391 380.629 300.68L380.157 301.562ZM381.171 306.964L380.646 306.113C380.651 306.111 380.527 306.171 380.176 306.273C379.865 306.364 379.454 306.465 378.97 306.57C378.004 306.78 376.783 306.997 375.548 307.166L375.684 308.157L375.82 309.148C377.101 308.972 378.373 308.747 379.395 308.525C379.905 308.414 380.364 308.301 380.735 308.193C381.068 308.096 381.441 307.973 381.697 307.815L381.171 306.964ZM375.684 308.157L375.549 307.166L370.977 307.793L371.112 308.784L371.248 309.774L375.82 309.148L375.684 308.157ZM371.112 308.784H372.112V304.656H371.112H370.112V308.784H371.112ZM301.048 252.572L303.048 252.549L303.048 252.549L301.048 252.572ZM300.362 276.895L301.777 278.309L300.362 276.895ZM272.098 243.892L271.092 242.163L271.092 242.163L272.098 243.892ZM299.283 229.005L299.544 227.023L299.543 227.022L299.283 229.005ZM254.506 258.908L255.51 257.178L255.51 257.178L254.506 258.908ZM248.404 281.554L247.405 279.821L247.405 279.821L248.404 281.554ZM226.706 292.325L227.973 290.778L227.973 290.778L226.706 292.325ZM226.639 244.861L228.053 246.275L228.053 246.275L226.639 244.861ZM250.518 335.882L249.468 334.179L249.466 334.181L250.518 335.882ZM249.651 287.604L249.595 285.605L249.595 285.605L249.651 287.604ZM282.323 323.481L283.738 322.067L283.738 322.067L282.323 323.481ZM293.891 323.379L292.409 322.036L292.409 322.037L293.891 323.379ZM296.113 306.414L294.113 306.371L294.113 306.371L296.113 306.414ZM296.434 291.547V289.547H294.477L294.434 291.504L296.434 291.547ZM308.437 291.547L310.437 291.59L310.481 289.547H308.437V291.547ZM308.1 307.265L306.101 307.222L306.101 307.222L308.1 307.265ZM305.421 326.748L303.723 325.692L303.723 325.693L305.421 326.748ZM274.907 331.084L276.12 329.494L276.12 329.493L274.907 331.084ZM268.357 291.547V289.547H266.357V291.547H268.357ZM280.328 291.547H282.328V289.547H280.328V291.547ZM349.165 299.531V301.531H351.165V299.531H349.165ZM330.21 299.531V297.531H328.21V299.531H330.21ZM330.21 308.512H328.21V310.512H330.21V308.512ZM347.169 308.512H349.169V306.512H347.169V308.512ZM347.169 316.496V318.496H349.169V316.496H347.169ZM330.21 316.496V314.496H328.21V316.496H330.21ZM330.21 333.461V335.461H332.21V333.461H330.21ZM318.238 333.461H316.238V335.461H318.238V333.461ZM318.238 291.547V289.547H316.238V291.547H318.238ZM349.165 291.547H351.165V289.547H349.165V291.547ZM390.813 294.185L392.003 292.578L392.003 292.577L390.813 294.185ZM394.968 300.203L396.853 299.537L396.853 299.536L394.968 300.203ZM394.469 308.039L396.261 308.927L396.261 308.927L394.469 308.039ZM389.342 313.444L390.212 315.245L390.212 315.245L389.342 313.444ZM394.965 326.456L393.2 327.396L393.2 327.397L394.965 326.456ZM385.078 333.461L383.318 334.41L383.885 335.461H385.078V333.461ZM382.336 328.377L384.096 327.428L384.096 327.427L382.336 328.377ZM372.826 316.679L372.595 318.666L372.595 318.666L372.826 316.679ZM370.115 316.363L370.346 314.376L368.115 314.116V316.363H370.115ZM370.115 333.461V335.461H372.115V333.461H370.115ZM358.143 333.461H356.143V335.461H358.143V333.461ZM358.143 291.3L358.2 289.301L356.143 289.242V291.3H358.143ZM373.105 291.726L373.048 293.725L373.048 293.725L373.105 291.726ZM370.115 309.51H368.115V311.51H370.115V309.51ZM370.115 299.531V297.531H368.115V299.531H370.115ZM301.048 252.572L299.048 252.595C299.128 259.534 299.098 265.445 298.979 269.68C298.919 271.802 298.837 273.478 298.739 274.642C298.689 275.23 298.638 275.648 298.592 275.912C298.568 276.048 298.553 276.096 298.556 276.088C298.557 276.083 298.574 276.029 298.612 275.949C298.642 275.887 298.741 275.689 298.948 275.481L300.362 276.895L301.777 278.309C302.191 277.896 302.338 277.394 302.375 277.275C302.444 277.053 302.494 276.819 302.531 276.604C302.608 276.166 302.671 275.612 302.724 274.98C302.832 273.704 302.917 271.942 302.977 269.793C303.098 265.485 303.128 259.517 303.048 252.549L301.048 252.572ZM300.362 276.895L298.948 275.481C299.327 275.103 299.743 274.997 299.924 274.965C300.119 274.93 300.261 274.94 300.302 274.943C300.384 274.95 300.384 274.96 300.251 274.922C300.005 274.851 299.594 274.7 299.002 274.448C297.837 273.953 296.195 273.165 294.211 272.157C290.256 270.147 285.074 267.329 279.914 264.409C274.755 261.489 269.645 258.482 265.835 256.096C263.926 254.901 262.37 253.879 261.305 253.111C260.766 252.722 260.397 252.431 260.18 252.234C260.066 252.131 260.045 252.1 260.067 252.128C260.079 252.143 260.136 252.216 260.197 252.338C260.249 252.442 260.38 252.728 260.38 253.134H258.38H256.38C256.38 253.597 256.531 253.951 256.623 254.133C256.723 254.334 256.839 254.495 256.928 254.607C257.105 254.831 257.312 255.034 257.498 255.202C257.879 255.546 258.387 255.938 258.966 256.356C260.137 257.2 261.779 258.276 263.713 259.487C267.59 261.914 272.755 264.953 277.944 267.89C283.133 270.827 288.372 273.677 292.399 275.723C294.407 276.743 296.146 277.58 297.438 278.13C298.074 278.4 298.661 278.626 299.143 278.765C299.373 278.832 299.669 278.905 299.975 278.93C300.127 278.942 300.363 278.95 300.633 278.901C300.888 278.855 301.361 278.725 301.777 278.309L300.362 276.895ZM258.38 253.134H260.38C260.38 253.466 260.293 253.712 260.243 253.831C260.189 253.959 260.134 254.045 260.11 254.081C260.063 254.15 260.043 254.163 260.095 254.11C260.192 254.01 260.387 253.834 260.711 253.575C261.346 253.068 262.302 252.381 263.527 251.555C265.968 249.911 269.359 247.798 273.103 245.621L272.098 243.892L271.092 242.163C267.293 244.372 263.824 246.532 261.292 248.238C260.032 249.087 258.973 249.844 258.215 250.45C257.842 250.748 257.495 251.045 257.226 251.323C257.094 251.458 256.934 251.637 256.793 251.845C256.705 251.976 256.38 252.459 256.38 253.134H258.38ZM272.098 243.892L273.103 245.621C280.649 241.233 289.521 236.041 292.822 234.082L291.801 232.362L290.78 230.643C287.496 232.592 278.637 237.776 271.092 242.163L272.098 243.892ZM291.801 232.362L292.822 234.082C294.412 233.139 296.009 232.309 297.287 231.736C297.929 231.447 298.458 231.238 298.848 231.112C299.044 231.048 299.174 231.015 299.246 231.001C299.355 230.98 299.244 231.017 299.023 230.988L299.283 229.005L299.543 227.022C299.116 226.967 298.72 227.028 298.475 227.076C298.192 227.132 297.898 227.214 297.611 227.308C297.035 227.495 296.363 227.766 295.649 228.086C294.214 228.73 292.482 229.632 290.78 230.643L291.801 232.362ZM299.283 229.005L299.022 230.988C298.125 230.87 298.008 230.088 298.155 230.558C298.288 230.984 298.437 231.86 298.563 233.544C298.81 236.852 298.934 242.631 299.048 252.595L301.048 252.572L303.048 252.549C302.934 242.629 302.811 236.708 302.552 233.246C302.424 231.545 302.254 230.268 301.973 229.366C301.705 228.509 301.078 227.225 299.544 227.023L299.283 229.005ZM254.506 258.908L253.503 260.637C257.422 262.912 260.972 265.113 263.529 266.822C264.812 267.68 265.817 268.395 266.486 268.922C266.826 269.19 267.036 269.375 267.143 269.483C267.2 269.541 267.183 269.531 267.138 269.467C267.115 269.433 267.058 269.348 267.002 269.219C266.951 269.102 266.855 268.846 266.855 268.498H268.855H270.855C270.855 267.8 270.507 267.306 270.424 267.185C270.28 266.979 270.117 266.801 269.982 266.665C269.705 266.387 269.349 266.085 268.96 265.779C268.172 265.158 267.069 264.377 265.751 263.497C263.107 261.729 259.482 259.483 255.51 257.178L254.506 258.908ZM268.855 268.498H266.855C266.855 268.017 267.036 267.686 267.084 267.601C267.152 267.48 267.213 267.408 267.223 267.395C267.246 267.368 267.226 267.395 267.12 267.489C266.917 267.666 266.573 267.935 266.071 268.298C265.078 269.015 263.613 269.993 261.772 271.169C258.097 273.515 253.011 276.589 247.405 279.821L248.404 281.554L249.403 283.286C255.046 280.033 260.185 276.927 263.924 274.54C265.789 273.35 267.328 272.324 268.412 271.541C268.949 271.154 269.412 270.798 269.756 270.496C269.923 270.35 270.112 270.173 270.275 269.98C270.356 269.885 270.47 269.74 270.574 269.555C270.657 269.407 270.855 269.022 270.855 268.498H268.855ZM248.404 281.554L247.405 279.821C239.975 284.106 234.825 286.956 231.432 288.64C229.726 289.487 228.535 290.003 227.755 290.263C227.358 290.395 227.159 290.43 227.101 290.435C226.949 290.45 227.449 290.348 227.973 290.778L226.706 292.325L225.438 293.871C226.189 294.487 227.072 294.456 227.476 294.418C227.974 294.371 228.503 294.23 229.021 294.057C230.073 293.706 231.464 293.09 233.211 292.223C236.726 290.478 241.972 287.571 249.403 283.286L248.404 281.554ZM226.706 292.325L227.973 290.778C228.178 290.946 228.288 291.113 228.33 291.181C228.378 291.259 228.4 291.312 228.402 291.317C228.404 291.324 228.382 291.268 228.347 291.117C228.276 290.82 228.198 290.354 228.12 289.707C227.964 288.425 227.829 286.625 227.718 284.451C227.498 280.114 227.382 274.422 227.374 268.705C227.366 262.989 227.466 257.278 227.674 252.901C227.779 250.708 227.909 248.882 228.061 247.569C228.138 246.907 228.216 246.421 228.287 246.1C228.324 245.938 228.349 245.862 228.354 245.848C228.381 245.776 228.313 246.015 228.053 246.275L226.639 244.861L225.224 243.447C224.857 243.814 224.683 244.245 224.609 244.442C224.514 244.696 224.442 244.968 224.384 245.226C224.268 245.745 224.171 246.389 224.088 247.107C223.92 248.554 223.785 250.485 223.679 252.711C223.467 257.175 223.366 262.955 223.374 268.711C223.382 274.467 223.499 280.229 223.724 284.654C223.836 286.861 223.976 288.769 224.149 290.19C224.234 290.893 224.334 291.527 224.454 292.036C224.513 292.288 224.59 292.562 224.694 292.82C224.769 293.005 224.975 293.492 225.438 293.872L226.706 292.325ZM226.639 244.861L228.053 246.275C228.165 246.163 228.093 246.261 227.915 246.333C227.709 246.418 227.579 246.387 227.66 246.398C227.962 246.441 228.729 246.69 230.556 247.61C234.092 249.393 240.664 253.187 253.503 260.637L254.506 258.908L255.51 257.178C242.74 249.767 236.027 245.889 232.356 244.038C230.579 243.143 229.262 242.585 228.219 242.438C227.627 242.354 227.009 242.382 226.401 242.631C225.823 242.867 225.437 243.234 225.224 243.447L226.639 244.861ZM251.397 311.447H249.397C249.397 318.001 249.298 324.01 249.14 328.408C249.061 330.612 248.967 332.389 248.866 333.622C248.815 334.245 248.765 334.689 248.72 334.967C248.696 335.114 248.683 335.157 248.689 335.138C248.691 335.131 248.715 335.047 248.773 334.93C248.798 334.881 248.989 334.475 249.468 334.179L250.518 335.882L251.568 337.584C252.077 337.27 252.298 336.824 252.353 336.715C252.441 336.538 252.495 336.374 252.526 336.267C252.591 336.047 252.636 335.811 252.669 335.603C252.739 335.171 252.799 334.605 252.853 333.95C252.961 332.626 253.058 330.778 253.138 328.552C253.298 324.093 253.397 318.034 253.397 311.447H251.397ZM250.518 335.882L249.466 334.181C249.907 333.908 250.315 333.901 250.416 333.9C250.563 333.899 250.66 333.918 250.674 333.921C250.707 333.927 250.668 333.922 250.523 333.87C250.249 333.771 249.82 333.589 249.227 333.312C248.056 332.763 246.419 331.924 244.453 330.871C240.531 328.771 235.402 325.876 230.301 322.905C225.2 319.934 220.148 316.899 216.379 314.52C214.49 313.327 212.947 312.314 211.887 311.563C211.351 311.183 210.977 310.897 210.752 310.705C210.634 310.603 210.606 310.569 210.624 310.59C210.632 310.599 210.693 310.669 210.761 310.788C210.808 310.87 210.998 311.206 210.998 311.699H208.998H206.998C206.998 312.237 207.206 312.63 207.292 312.78C207.4 312.967 207.519 313.114 207.603 313.211C207.773 313.408 207.971 313.59 208.149 313.742C208.514 314.055 209.007 314.425 209.575 314.827C210.722 315.64 212.336 316.698 214.244 317.902C218.067 320.315 223.163 323.377 228.288 326.361C233.412 329.346 238.586 332.267 242.565 334.397C244.55 335.46 246.262 336.34 247.531 336.934C248.158 337.228 248.721 337.473 249.173 337.635C249.391 337.713 249.648 337.796 249.906 337.846C250.032 337.871 250.224 337.902 250.447 337.9C250.624 337.898 251.09 337.879 251.57 337.583L250.518 335.882ZM208.998 311.699H210.998C210.998 312.18 210.816 312.511 210.769 312.596C210.701 312.716 210.64 312.788 210.631 312.799C210.609 312.824 210.632 312.794 210.742 312.698C210.951 312.515 211.303 312.242 211.81 311.876C212.813 311.152 214.276 310.175 216.073 309.02C219.657 306.717 224.478 303.771 229.389 300.86C234.299 297.95 239.28 295.087 243.184 292.952C245.139 291.883 246.805 291.006 248.05 290.399C248.675 290.094 249.168 289.869 249.526 289.725C249.705 289.652 249.825 289.61 249.895 289.588C250.004 289.555 249.907 289.598 249.707 289.604L249.651 287.604L249.595 285.605C249.236 285.615 248.91 285.707 248.726 285.763C248.502 285.832 248.263 285.92 248.024 286.017C247.543 286.212 246.957 286.482 246.296 286.804C244.969 287.451 243.24 288.362 241.265 289.443C237.307 291.607 232.284 294.494 227.349 297.419C222.415 300.343 217.55 303.317 213.911 305.655C212.095 306.821 210.561 307.845 209.47 308.632C208.93 309.021 208.461 309.38 208.11 309.686C207.941 309.834 207.749 310.013 207.583 310.208C207.502 310.304 207.386 310.45 207.282 310.636C207.197 310.786 206.998 311.172 206.998 311.699H208.998ZM249.651 287.604L249.707 289.604C249.744 289.603 249.51 289.619 249.221 289.459C248.911 289.287 248.799 289.062 248.797 289.057C248.797 289.057 248.802 289.068 248.812 289.093C248.821 289.118 248.833 289.155 248.847 289.205C248.876 289.307 248.909 289.45 248.944 289.647C249.014 290.044 249.079 290.598 249.135 291.365C249.363 294.475 249.397 300.352 249.397 311.447H251.397H253.397C253.397 300.435 253.366 294.368 253.124 291.073C253.009 289.499 252.833 288.234 252.413 287.347C252.172 286.836 251.785 286.306 251.159 285.959C250.553 285.624 249.962 285.595 249.595 285.605L249.651 287.604ZM280.328 306.516H278.328C278.328 313.284 278.369 317.211 278.658 319.665C278.805 320.916 279.03 321.926 279.418 322.796C279.824 323.706 280.353 324.339 280.909 324.895L282.323 323.481L283.738 322.067C283.385 321.714 283.21 321.477 283.071 321.166C282.915 320.817 282.755 320.256 282.63 319.198C282.376 317.033 282.328 313.387 282.328 306.516H280.328ZM282.323 323.481L280.909 324.895C282.791 326.778 285.646 327.538 288.206 327.515C290.755 327.493 293.593 326.687 295.373 324.722L293.891 323.379L292.409 322.037C291.649 322.875 290.081 323.499 288.171 323.516C286.271 323.532 284.612 322.941 283.738 322.067L282.323 323.481ZM293.891 323.379L295.373 324.723C296.568 323.404 297.156 321.958 297.501 319.326C297.831 316.8 297.973 312.895 298.112 306.458L296.113 306.414L294.113 306.371C293.973 312.878 293.831 316.542 293.535 318.807C293.252 320.964 292.869 321.529 292.409 322.036L293.891 323.379ZM296.113 306.414L298.112 306.458L298.433 291.59L296.434 291.547L294.434 291.504L294.113 306.371L296.113 306.414ZM296.434 291.547V293.547H302.436V291.547V289.547H296.434V291.547ZM302.436 291.547V293.547H308.437V291.547V289.547H302.436V291.547ZM308.437 291.547L306.438 291.504L306.101 307.222L308.1 307.265L310.1 307.308L310.437 291.59L308.437 291.547ZM308.1 307.265L306.101 307.222C305.945 314.486 305.813 318.357 305.47 320.85C305.152 323.162 304.676 324.16 303.723 325.692L305.421 326.748L307.12 327.805C308.318 325.878 309.026 324.352 309.433 321.395C309.814 318.62 309.946 314.479 310.1 307.308L308.1 307.265ZM305.421 326.748L303.723 325.693C302.057 328.374 300.568 329.804 298.445 330.67C296.187 331.591 293.008 331.96 287.733 331.96V333.96V335.96C293.045 335.96 296.914 335.614 299.955 334.374C303.132 333.079 305.194 330.904 307.12 327.804L305.421 326.748ZM287.733 333.96V331.96C283.433 331.96 281.357 331.9 279.909 331.576C278.641 331.291 277.833 330.801 276.12 329.494L274.907 331.084L273.694 332.673C275.494 334.048 276.878 334.995 279.034 335.479C281.009 335.922 283.589 335.96 287.733 335.96V333.96ZM274.907 331.084L276.12 329.493C274.738 328.439 273.772 327.558 273.047 326.602C272.339 325.67 271.805 324.594 271.404 323.094C270.568 319.96 270.357 315.206 270.357 306.548H268.357H266.357C266.357 315.069 266.541 320.386 267.54 324.126C268.057 326.063 268.801 327.625 269.861 329.022C270.904 330.394 272.196 331.531 273.694 332.674L274.907 331.084ZM268.357 306.548H270.357V291.547H268.357H266.357V306.548H268.357ZM268.357 291.547V293.547H274.342V291.547V289.547H268.357V291.547ZM274.342 291.547V293.547H280.328V291.547V289.547H274.342V291.547ZM280.328 291.547H278.328V306.516H280.328H282.328V291.547H280.328ZM349.165 295.539H347.165V299.531H349.165H351.165V295.539H349.165ZM349.165 299.531V297.531H339.687V299.531V301.531H349.165V299.531ZM339.687 299.531V297.531H330.21V299.531V301.531H339.687V299.531ZM330.21 299.531H328.21V304.021H330.21H332.21V299.531H330.21ZM330.21 304.021H328.21V308.512H330.21H332.21V304.021H330.21ZM330.21 308.512V310.512H338.689V308.512V306.512H330.21V308.512ZM338.689 308.512V310.512H347.169V308.512V306.512H338.689V308.512ZM347.169 308.512H345.169V312.504H347.169H349.169V308.512H347.169ZM347.169 312.504H345.169V316.496H347.169H349.169V312.504H347.169ZM347.169 316.496V314.496H338.689V316.496V318.496H347.169V316.496ZM338.689 316.496V314.496H330.21V316.496V318.496H338.689V316.496ZM330.21 316.496H328.21V324.978H330.21H332.21V316.496H330.21ZM330.21 324.978H328.21V333.461H330.21H332.21V324.978H330.21ZM330.21 333.461V331.461H324.224V333.461V335.461H330.21V333.461ZM324.224 333.461V331.461H318.238V333.461V335.461H324.224V333.461ZM318.238 333.461H320.238V312.504H318.238H316.238V333.461H318.238ZM318.238 312.504H320.238V291.547H318.238H316.238V312.504H318.238ZM318.238 291.547V293.547H333.701V291.547V289.547H318.238V291.547ZM333.701 291.547V293.547H349.165V291.547V289.547H333.701V291.547ZM349.165 291.547H347.165V295.539H349.165H351.165V291.547H349.165ZM390.813 294.185L389.622 295.792C390.129 296.167 390.828 296.926 391.52 297.928C392.199 298.912 392.767 299.979 393.082 300.87L394.968 300.203L396.853 299.536C396.393 298.236 395.639 296.853 394.812 295.656C393.998 294.476 393.007 293.321 392.003 292.578L390.813 294.185ZM394.968 300.203L393.082 300.87C393.734 302.716 393.889 303.434 393.851 304.04C393.812 304.652 393.562 305.364 392.677 307.152L394.469 308.039L396.261 308.927C397.107 307.218 397.745 305.821 397.843 304.294C397.94 302.76 397.479 301.308 396.853 299.537L394.968 300.203ZM394.469 308.039L392.677 307.152C391.707 309.11 389.897 310.955 388.472 311.643L389.342 313.444L390.212 315.245C392.59 314.097 394.978 311.517 396.261 308.927L394.469 308.039ZM389.342 313.444L388.472 311.643C386.87 312.417 385.425 313.349 384.686 314.327C384.487 314.591 384.241 314.982 384.128 315.479C384.001 316.03 384.039 316.744 384.492 317.385C384.904 317.967 385.474 318.224 385.865 318.342C386.268 318.463 386.677 318.496 387.036 318.496V316.496V314.496C386.9 314.496 386.914 314.48 387.015 314.511C387.104 314.537 387.466 314.662 387.758 315.075C388.092 315.548 388.099 316.056 388.027 316.373C387.994 316.514 387.949 316.613 387.923 316.663C387.908 316.69 387.897 316.71 387.889 316.721C387.882 316.733 387.877 316.739 387.877 316.739C387.877 316.739 387.88 316.735 387.888 316.726C387.895 316.718 387.906 316.706 387.92 316.69C387.95 316.659 387.992 316.618 388.049 316.568C388.163 316.467 388.321 316.343 388.528 316.2C388.943 315.914 389.506 315.586 390.212 315.245L389.342 313.444ZM387.036 316.496V318.496C386.718 318.496 386.752 318.357 387.236 318.749C387.644 319.08 388.179 319.632 388.82 320.437C390.093 322.036 391.609 324.412 393.2 327.396L394.965 326.456L396.73 325.516C395.074 322.407 393.427 319.802 391.949 317.945C391.214 317.021 390.475 316.225 389.754 315.641C389.108 315.118 388.155 314.496 387.036 314.496V316.496ZM394.965 326.456L393.2 327.397C394.038 328.97 394.796 330.46 395.341 331.59C395.615 332.158 395.826 332.618 395.966 332.944C396.037 333.11 396.079 333.218 396.099 333.276C396.11 333.307 396.106 333.3 396.098 333.268C396.094 333.251 396.084 333.212 396.074 333.156C396.066 333.109 396.048 332.998 396.048 332.852H398.048H400.048C400.048 332.561 399.986 332.324 399.967 332.252C399.937 332.139 399.902 332.033 399.872 331.946C399.81 331.771 399.73 331.574 399.644 331.373C399.471 330.966 399.229 330.445 398.944 329.853C398.371 328.664 397.587 327.125 396.73 325.515L394.965 326.456ZM398.048 332.852H396.048C396.048 332.089 396.472 331.615 396.664 331.439C396.862 331.258 397.042 331.175 397.087 331.154C397.192 331.106 397.226 331.108 397.105 331.135C396.896 331.181 396.516 331.238 395.956 331.29C394.86 331.393 393.304 331.461 391.564 331.461V333.461V335.461C393.39 335.461 395.076 335.391 396.331 335.273C396.946 335.215 397.519 335.14 397.968 335.041C398.177 334.995 398.466 334.921 398.745 334.794C398.877 334.734 399.123 334.611 399.366 334.389C399.602 334.172 400.048 333.656 400.048 332.852H398.048ZM391.564 333.461V331.461H385.078V333.461V335.461H391.564V333.461ZM385.078 333.461L386.838 332.511L384.096 327.428L382.336 328.377L380.575 329.327L383.318 334.41L385.078 333.461ZM382.336 328.377L384.096 327.427C381.579 322.763 379.824 319.749 378.295 317.869C377.511 316.904 376.718 316.149 375.827 315.612C374.911 315.06 373.994 314.802 373.057 314.693L372.826 316.679L372.595 318.666C373.076 318.722 373.423 318.834 373.763 319.039C374.129 319.259 374.586 319.647 375.191 320.392C376.442 321.93 378.025 324.601 380.576 329.327L382.336 328.377ZM372.826 316.679L373.058 314.693L370.346 314.376L370.115 316.363L369.883 318.349L372.595 318.666L372.826 316.679ZM370.115 316.363H368.115V324.912H370.115H372.115V316.363H370.115ZM370.115 324.912H368.115V333.461H370.115H372.115V324.912H370.115ZM370.115 333.461V331.461H364.129V333.461V335.461H370.115V333.461ZM364.129 333.461V331.461H358.143V333.461V335.461H364.129V333.461ZM358.143 333.461H360.143V312.38H358.143H356.143V333.461H358.143ZM358.143 312.38H360.143V291.3H358.143H356.143V312.38H358.143ZM358.143 291.3L358.086 293.299L373.048 293.725L373.105 291.726L373.162 289.727L358.2 289.301L358.143 291.3ZM373.105 291.726L373.048 293.725C379.625 293.912 383.331 294.081 385.691 294.408C387.92 294.718 388.742 295.14 389.622 295.792L390.813 294.185L392.003 292.577C390.48 291.45 388.992 290.828 386.241 290.446C383.619 290.082 379.673 289.911 373.161 289.727L373.105 291.726ZM370.115 304.52H368.115V309.51H370.115H372.115V304.52H370.115ZM370.115 309.51V311.51H374.04V309.51V307.51H370.115V309.51ZM374.04 309.51V311.51C377.24 311.51 379.908 311.146 381.835 310.13C382.839 309.602 383.683 308.875 384.264 307.905C384.844 306.937 385.084 305.857 385.084 304.745H383.084H381.084C381.084 305.277 380.973 305.615 380.833 305.849C380.694 306.082 380.448 306.34 379.971 306.592C378.936 307.137 377.083 307.51 374.04 307.51V309.51ZM383.084 304.745H385.084C385.084 302.494 384.616 300.323 382.609 298.961C380.871 297.781 378.362 297.531 375.402 297.531V299.531V301.531C378.423 301.531 379.755 301.858 380.363 302.27C380.702 302.5 381.084 302.936 381.084 304.745H383.084ZM375.402 299.531V297.531H370.115V299.531V301.531H375.402V299.531ZM370.115 299.531H368.115V304.52H370.115H372.115V299.531H370.115Z" fill="white" mask="url(#path-2-inside-1_38_109)"/>
</svg>
