<svg width="55" height="54" viewBox="0 0 55 54" fill="none" xmlns="http://www.w3.org/2000/svg">
<path fill-rule="evenodd" clip-rule="evenodd" d="M22.6705 0.358972C1.91408 4.36535 -7.04493 28.837 6.31452 45.0337C9.732 49.1764 16.1416 53.3551 19.2054 53.4372L20.4893 53.4718L20.5944 50.7065L20.6998 47.9411L18.9102 48.1131C15.4033 48.4501 12.7096 46.9291 11.0683 43.685C10.4896 42.5414 9.2994 41.0048 8.3906 40.2279C6.83109 38.8949 6.79001 38.8109 7.50724 38.4267C8.80974 37.7298 10.7993 38.6768 12.4733 40.7903C14.3393 43.1459 15.4749 43.8395 17.4554 43.8333C19.8997 43.8257 20.6031 43.5222 20.8572 42.3644C20.9823 41.7943 21.4127 40.9114 21.8133 40.4021L22.5414 39.4762H21.6388C20.0695 39.4762 16.4822 38.1762 14.7362 36.9751C11.8008 34.9554 10.1133 31.1893 10.0766 26.5751C10.0526 23.5346 10.623 21.3411 11.9069 19.5381C12.4991 18.7067 12.5591 18.281 12.2883 16.8316C11.9575 15.0602 12.3872 11.626 13.019 10.9942C13.513 10.5002 16.5328 11.3504 18.7972 12.6213C20.6162 13.6417 20.8554 13.6868 22.5414 13.3251C24.8244 12.8358 30.1601 12.8271 32.7008 13.3087C34.521 13.6541 34.7852 13.6075 36.6585 12.6151C37.7621 12.0302 39.3834 11.3606 40.2606 11.1272C42.6613 10.4885 43.0237 11.0244 43.0434 15.2412C43.0561 18.0243 43.1931 18.8252 43.8337 19.863C45.0475 21.829 45.5106 24.2889 45.3008 27.653C45.0809 31.1788 44.0169 33.8874 42.0971 35.8068C40.5656 37.3383 37.042 39.0374 34.7732 39.3388L33.0618 39.5656L33.835 41.0658C34.4846 42.3258 34.642 43.4382 34.8194 48.0149C35.0033 52.7687 35.1095 53.479 35.6526 53.5826C36.6148 53.7666 42.0379 51.0547 44.6185 49.0993C47.6674 46.7891 50.5519 43.2521 52.3186 39.6579C54.535 35.1484 55.0218 32.8375 54.9993 26.9346C54.9822 22.4771 54.8644 21.4993 54.0505 19.0582C51.0761 10.1392 44.1299 3.46636 35.2022 0.95224C31.7189 -0.0285432 26.0647 -0.296459 22.6705 0.358972Z" fill="white"/>
</svg>
