<svg width="28" height="32" viewBox="0 0 28 32" fill="none" xmlns="http://www.w3.org/2000/svg">
<path d="M12.9111 31.5723L9.33333 27.9951H3.11111C2.25556 27.9951 1.52289 27.6908 0.913111 27.0822C0.30437 26.4725 0 25.74 0 24.8846V3.11057C0 2.25516 0.30437 1.52262 0.913111 0.912952C1.52289 0.304317 2.25556 0 3.11111 0H24.8889C25.7444 0 26.4771 0.304317 27.0869 0.912952C27.6956 1.52262 28 2.25516 28 3.11057V24.8846C28 25.74 27.6956 26.4725 27.0869 27.0822C26.4771 27.6908 25.7444 27.9951 24.8889 27.9951H18.6667L15.0889 31.5723C14.8037 31.8574 14.4407 32 14 32C13.5593 32 13.1963 31.8574 12.9111 31.5723ZM13.9222 23.0182C14.4667 23.0182 14.9271 22.8306 15.3036 22.4552C15.679 22.0788 15.8667 21.6185 15.8667 21.0741C15.8667 20.5298 15.679 20.0694 15.3036 19.693C14.9271 19.3177 14.4667 19.13 13.9222 19.13C13.3778 19.13 12.9173 19.3177 12.5409 19.693C12.1655 20.0694 11.9778 20.5298 11.9778 21.0741C11.9778 21.6185 12.1655 22.0788 12.5409 22.4552C12.9173 22.8306 13.3778 23.0182 13.9222 23.0182ZM15.4778 15.7084C15.5556 15.2936 15.6919 14.9307 15.8869 14.6197C16.0808 14.3086 16.463 13.868 17.0333 13.2977C17.9926 12.3386 18.6407 11.561 18.9778 10.9648C19.3148 10.3686 19.4833 9.69461 19.4833 8.94289C19.4833 7.6209 18.9975 6.52546 18.0258 5.65657C17.053 4.78872 15.8278 4.3548 14.35 4.3548C13.2352 4.3548 12.2433 4.58135 11.3742 5.03446C10.5062 5.4886 9.83889 6.09154 9.37222 6.84326C9.13889 7.20616 9.07407 7.58824 9.17778 7.9895C9.28148 8.3918 9.51482 8.67072 9.87778 8.82625C10.2407 8.98177 10.5975 8.98851 10.948 8.84646C11.2975 8.70338 11.5759 8.46334 11.7833 8.12637C12.0426 7.76347 12.3926 7.48507 12.8333 7.29118C13.2741 7.09625 13.7278 6.99878 14.1944 6.99878C14.9204 6.99878 15.5037 7.1932 15.9444 7.58202C16.3852 7.97084 16.6056 8.46334 16.6056 9.05954C16.6056 9.55204 16.4567 10.0446 16.1591 10.5371C15.8604 11.0296 15.4 11.548 14.7778 12.0923C14.1037 12.6885 13.5852 13.2977 13.2222 13.9198C12.8593 14.5419 12.6778 15.1252 12.6778 15.6695C12.6778 16.0324 12.8141 16.3435 13.0869 16.6027C13.3586 16.8619 13.6889 16.9915 14.0778 16.9915C14.4407 16.9915 14.7451 16.8686 14.9909 16.6229C15.2377 16.3761 15.4 16.0713 15.4778 15.7084Z" fill="black"/>
</svg>
